<?xml version="1.0" standalone="no"?>
<!DOCTYPE svg PUBLIC "-//W3C//DTD SVG 20010904//EN"
 "http://www.w3.org/TR/2001/REC-SVG-20010904/DTD/svg10.dtd">
<svg version="1.0" xmlns="http://www.w3.org/2000/svg"
 width="700.000000pt" height="700.000000pt" viewBox="0 0 700.000000 700.000000"
 preserveAspectRatio="xMidYMid meet">
<metadata>
Created by potrace 1.11, written by Peter Selinger 2001-2013
</metadata>
<g transform="translate(0.000000,700.000000) scale(0.100000,-0.100000)"
fill="#000000" stroke="none">
<path d="M2925 4406 c-16 -7 -38 -22 -48 -33 -22 -25 -557 -1627 -557 -1668 0
-61 67 -125 130 -125 31 0 88 29 105 53 8 12 137 387 285 834 255 765 270 814
261 851 -12 43 -42 75 -84 91 -36 14 -55 13 -92 -3z"/>
<path d="M3720 4412 c-30 -13 -57 -37 -70 -62 -29 -54 -540 -1607 -540 -1640
0 -76 73 -139 149 -126 81 13 74 -3 365 871 146 440 266 816 266 835 0 85 -97
154 -170 122z"/>
<path d="M4495 4405 c-16 -9 -38 -25 -47 -36 -9 -11 -139 -386 -288 -834 -258
-776 -271 -816 -260 -854 11 -43 55 -87 97 -97 34 -9 95 11 121 39 26 28 562
1623 562 1672 0 42 -31 89 -73 108 -43 21 -73 21 -112 2z"/>
</g>
</svg>
